<svg width="29" height="39" viewBox="0 0 29 39" fill="none" xmlns="http://www.w3.org/2000/svg">
<rect x="0.459991" y="0.488022" width="28" height="28" rx="14" fill="#3A3145"/>
<g clip-path="url(#clip0_80_527)">
<path d="M7.28714 19.5804V17.9183H9.14314V11.873C9.14314 10.635 9.50259 9.52407 10.2215 8.54009C10.9404 7.55612 11.8977 6.93267 13.0933 6.66974V6.12934C13.0933 5.75102 13.2274 5.43709 13.4955 5.18753C13.7635 4.93799 14.0851 4.81322 14.4602 4.81322C14.8352 4.81322 15.1568 4.93799 15.4249 5.18753C15.693 5.43709 15.827 5.75102 15.827 6.12934V6.66974C17.0306 6.93267 17.9952 7.55416 18.7211 8.5342C19.4469 9.51424 19.8098 10.6272 19.8098 11.873V17.9183H21.645V19.5804H7.28714ZM14.4661 22.1158C13.9945 22.1158 13.5822 21.9434 13.229 21.5985C12.8759 21.2537 12.6993 20.8392 12.6993 20.3549H16.2328C16.2328 20.8446 16.0589 21.2606 15.7111 21.6027C15.3633 21.9447 14.9483 22.1158 14.4661 22.1158ZM10.7935 17.9183H18.1477V11.873C18.1477 10.8453 17.7935 9.97025 17.0852 9.24803C16.3768 8.52581 15.5088 8.1647 14.481 8.1647C13.4532 8.1647 12.5817 8.52581 11.8664 9.24803C11.1512 9.97025 10.7935 10.8453 10.7935 11.873V17.9183Z" fill="white"/>
</g>
<rect width="3" height="10" transform="translate(12.96 28.488)" fill="url(#paint0_linear_80_527)"/>
<defs>
<linearGradient id="paint0_linear_80_527" x1="1.5" y1="0" x2="1.5" y2="10" gradientUnits="userSpaceOnUse">
<stop stop-color="white"/>
<stop offset="1" stop-color="white" stop-opacity="0"/>
</linearGradient>
<clipPath id="clip0_80_527">
<rect width="20" height="20" fill="white" transform="translate(4.45999 4.48802)"/>
</clipPath>
</defs>
</svg>
