<svg width="29" height="39" viewBox="0 0 29 39" fill="none" xmlns="http://www.w3.org/2000/svg">
<rect x="0.459991" y="0.488022" width="28" height="28" rx="14" fill="#3A3145"/>
<g clip-path="url(#clip0_80_511)">
<path d="M9.44387 21.5937C9.01513 21.5937 8.6481 21.4411 8.34277 21.1358C8.03745 20.8304 7.8848 20.4634 7.8848 20.0347V11.6936C7.8848 11.2618 8.03745 10.8921 8.34277 10.5846C8.6481 10.2771 9.01513 10.1234 9.44387 10.1234H10.599V8.47878C10.599 7.39722 10.9741 6.47765 11.7241 5.72008C12.4742 4.96251 13.3862 4.58372 14.4602 4.58372C15.5342 4.58372 16.4464 4.96251 17.1968 5.72008C17.9473 6.47765 18.3225 7.39722 18.3225 8.47878V10.1234H19.4777C19.9095 10.1234 20.2791 10.2771 20.5866 10.5846C20.8941 10.8921 21.0479 11.2618 21.0479 11.6936V20.0347C21.0479 20.4634 20.8941 20.8304 20.5866 21.1358C20.2791 21.4411 19.9095 21.5937 19.4777 21.5937H9.44387ZM9.44387 20.0347H19.4777V11.6936H9.44387V20.0347ZM14.4641 17.3795C14.8817 17.3795 15.2382 17.235 15.5334 16.9459C15.8286 16.6569 15.9762 16.3094 15.9762 15.9035C15.9762 15.5099 15.8275 15.1523 15.5301 14.8309C15.2327 14.5094 14.8751 14.3487 14.4575 14.3487C14.0398 14.3487 13.6834 14.5094 13.3882 14.8309C13.093 15.1523 12.9453 15.5132 12.9453 15.9133C12.9453 16.3135 13.0941 16.6579 13.3915 16.9466C13.6889 17.2352 14.0464 17.3795 14.4641 17.3795ZM12.1581 10.1234H16.7634V8.48134C16.7634 7.82579 16.5417 7.274 16.0984 6.82597C15.655 6.37794 15.1108 6.15392 14.4657 6.15392C13.8207 6.15392 13.2748 6.37794 12.8281 6.82597C12.3815 7.274 12.1581 7.82579 12.1581 8.48134V10.1234Z" fill="white"/>
</g>
<rect width="3" height="10" transform="translate(12.96 28.488)" fill="url(#paint0_linear_80_511)"/>
<defs>
<linearGradient id="paint0_linear_80_511" x1="1.5" y1="0" x2="1.5" y2="10" gradientUnits="userSpaceOnUse">
<stop stop-color="white"/>
<stop offset="1" stop-color="white" stop-opacity="0"/>
</linearGradient>
<clipPath id="clip0_80_511">
<rect width="20" height="20" fill="white" transform="translate(4.45999 4.48802)"/>
</clipPath>
</defs>
</svg>
