<svg width="17" height="17" viewBox="0 0 17 17" fill="none" xmlns="http://www.w3.org/2000/svg">
<path d="M0.919395 14.3364C0.448023 14.8077 0.428784 15.6446 0.929015 16.1353C1.41963 16.6259 2.26617 16.6162 2.72792 16.1545L8.42285 10.4596L14.1082 16.1449C14.5892 16.6259 15.4165 16.6259 15.9071 16.1353C16.3977 15.635 16.3977 14.8173 15.9167 14.3364L10.2314 8.65104L15.9167 2.9561C16.3977 2.47511 16.4073 1.64781 15.9071 1.15719C15.4068 0.666584 14.5892 0.666584 14.1082 1.14757L8.42285 6.83289L2.72792 1.14757C2.26617 0.676203 1.41963 0.656964 0.929015 1.15719C0.438404 1.64781 0.448023 2.49435 0.919395 2.9561L6.60471 8.65104L0.919395 14.3364Z" fill="black"/>
</svg>
